<svg t="1710222198379" class="icon" viewBox="0 0 1024 1024" version="1.1" xmlns="http://www.w3.org/2000/svg" p-id="8605" width="64" height="64"><path d="M512 73.142857a439.076571 439.076571 0 0 0-438.857143 438.125714C72.338286 753.078857 269.897143 950.418286 512 950.857143c242.102857 0.512 439.296-199.606857 438.857143-439.588572A438.857143 438.857143 0 0 0 512 73.142857z" fill="#4B74FF" p-id="8606"></path><path d="M512.292571 254.902857a156.745143 156.745143 0 1 0 0 313.490286 156.745143 156.745143 0 0 0 0-313.490286z" fill="#FFFFFF" p-id="8607"></path><path d="M207.286857 828.489143C230.473143 731.794286 345.965714 689.005714 418.962286 689.005714h189.878857c73.654857 0 175.762286 58.221714 199.094857 154.112C724.333714 914.944 625.664 950.857143 512 950.857143c-113.664 0-215.259429-40.813714-304.713143-122.368z" fill="#FFFFFF" p-id="8608"></path></svg>